# xmcd
#
# Track frame offsets: 
#        180
#        19336
#        37850
#        55323
#        73624
#        91232
#        109890
#        126674
#        144584
#        160294
#        175624
#        190694
#
# Disc length: 2910 seconds
#
# Revision: 4
# Processed by: cddbd v1.5.2PL0 Copyright (c) Steve Scherf et al.
# Submitted via: ExactAudioCopyFreeDBPlugin 1.0
#
DISCID=a40b5c0c
DTITLE=Laureano Brizuela - Sueños Compartidos
DYEAR=1991
DGENRE=Latin
TTITLE0=Sueños Compartidos
TTITLE1=Cuando seas Grande
TTITLE2=Viento del Sur
TTITLE3=Tengo Ganas de Estar Bien
TTITLE4=Ella no es mejor que tu
TTITLE5=Nena Neurotica
TTITLE6=Quiero Escaparme de Ti
TTITLE7=Amigo
TTITLE8=Amor de Cristal
TTITLE9=Eres lo que quiero
TTITLE10=Tormenta de Verano
TTITLE11=Angel del Rock Parte 2
EXTD=ID3G: 0
EXTT0=
EXTT1=
EXTT2=
EXTT3=
EXTT4=
EXTT5=
EXTT6=
EXTT7=
EXTT8=
EXTT9=
EXTT10=
EXTT11=
PLAYORDER=
